<svg width="72" height="78" viewBox="0 0 72 78" fill="none" xmlns="http://www.w3.org/2000/svg">
<path d="M43.0301 0.0269936C42.9645 0.0211635 42.9068 0.0294229 42.8443 0.0286131C42.8403 0.0286131 42.8361 0.0269936 42.832 0.0269936C24.3105 -0.614808 4.84255 10.1491 6.52503 30.9761C6.53167 31.0605 6.55256 31.1352 6.56778 31.2137C6.54349 31.4293 6.54349 31.6549 6.5958 31.9001C7.61138 36.6529 6.05263 40.8313 2.1513 43.7451C1.97251 43.8782 1.8355 44.0313 1.71582 44.1908C1.32148 44.4499 1.01021 44.8472 0.842434 45.3282C0.110591 47.4285 0.666558 49.5667 2.34499 51.0279C2.6216 51.2679 2.94209 51.4317 3.27554 51.5196C4.35897 52.1183 5.4918 52.5162 6.66819 52.7943C6.4264 54.0986 6.54527 55.4175 7.17347 56.6594C6.00048 58.9456 6.77913 61.4678 9.09498 62.8443C9.22568 62.9224 9.35604 62.9809 9.48431 63.0261C9.87735 63.4941 9.91525 64.2457 9.77047 64.9686C9.72561 65.1897 9.71994 65.4109 9.73678 65.6264C9.72658 65.8222 9.73273 66.0213 9.77047 66.2219C10.381 69.4241 13.1163 71.1923 16.2461 71.2491C16.4147 71.2525 16.5702 71.235 16.7169 71.2054C16.8617 71.2121 17.0134 71.2038 17.17 71.1784C22.1964 70.3633 27.9193 70.8188 29.8073 76.3395C30.1848 77.4424 31.1934 77.8165 32.0973 77.6709C32.4019 77.8996 32.8029 78.0294 33.3083 77.9941C42.4164 77.3575 51.4444 76.0344 60.4881 74.8206C60.8081 74.7777 61.0852 74.6742 61.3244 74.5276C62.4208 74.1856 63.3063 72.9587 62.5983 71.6362C56.5555 60.3698 68.8054 48.0785 71.1303 37.2554C71.1813 37.0213 71.1822 36.8047 71.1616 36.5982C73.6188 18.8219 61.3187 1.67417 43.0301 0.0269936ZM67.3038 35.8054C67.28 35.97 67.2768 36.1274 67.2858 36.2787C64.7603 47.8594 53.6848 59.0551 58.0695 71.181C49.8337 72.2994 41.6033 73.4474 33.3072 74.028C33.2484 74.0321 33.1971 74.0478 33.1407 74.0568C30.1756 67.4573 23.2765 66.2739 16.4503 67.3076C16.3822 67.2994 16.3188 67.2845 16.2456 67.283C15.4684 67.2681 15.0626 67.1876 14.4561 66.8176C14.5092 66.8341 14.1445 66.5429 14.1478 66.5478C14.0956 66.4951 14.0631 66.4639 14.0393 66.4433C14.0393 66.4276 14.0184 66.3808 13.9418 66.2566C13.8263 66.0715 13.7411 65.8109 13.6703 65.5165C14.0223 63.0856 13.332 60.9738 11.295 59.4196C11.1313 59.2954 10.948 59.2256 10.7585 59.1794C10.6997 59.1301 10.6426 59.0824 10.5809 59.0201C10.592 59.0249 10.5817 59.0003 10.5464 58.9435C10.5464 58.8933 10.543 58.8769 10.5373 58.8818C10.5616 58.7767 10.5849 58.6713 10.622 58.5692C10.6228 58.5652 10.9185 58.1064 11.0163 57.9681C11.2897 57.5823 11.3457 57.1144 11.2597 56.6646C11.341 56.2207 11.2832 55.7568 11.0163 55.3703C10.266 54.2831 10.4136 53.3579 11.0163 52.2149C11.8795 50.579 10.3247 49.0859 8.94729 49.2387C8.93287 49.237 8.92008 49.2321 8.90615 49.2297C7.50886 49.0454 6.15822 48.6366 4.94733 47.913C4.86053 47.862 4.77534 47.8308 4.69032 47.792C4.62975 47.7041 4.57356 47.6144 4.52287 47.5216C4.51428 47.496 4.50764 47.4738 4.49582 47.4375C4.48594 47.3916 4.47898 47.3611 4.47234 47.3315C4.46894 47.2403 4.47153 47.1506 4.47558 47.0592C4.48222 47.0346 4.49501 46.9778 4.51185 46.8898C9.55087 42.9524 11.7153 37.5404 10.4892 31.2147C10.4916 31.1353 10.4999 31.0613 10.4932 30.9769C8.98081 12.256 26.3972 3.42597 42.831 3.99489C42.8829 3.99651 42.9289 3.98744 42.9791 3.98582C42.9972 3.98744 43.0119 3.99311 43.0299 3.99489C58.632 5.40044 69.5267 20.6166 67.3038 35.8054Z" fill="#EB5757"/>
<path d="M47.2636 9.6438H35.2637C34.3781 9.6438 33.86 10.2054 33.6967 10.8691C33.3385 11.1344 33.1063 11.5627 33.1584 12.1702C34.0334 22.3252 35.1214 32.4555 36.7979 42.513C36.959 43.4802 37.7111 43.819 38.4536 43.7088C38.5754 43.7351 38.7037 43.7492 38.8426 43.7492H43.8952C45.0086 43.7492 45.5465 42.8651 45.5202 42.0024C45.5491 41.8906 45.5711 41.7713 45.5793 41.6438C46.2594 31.6302 47.8557 21.7195 48.9479 11.749C48.979 11.466 48.9453 11.2234 48.868 11.0155C48.7496 10.2898 48.2142 9.6438 47.2636 9.6438ZM42.3096 40.3806H39.8483C38.3812 31.3046 37.401 22.1692 36.6008 13.0122H45.4329C44.3978 22.1373 43.0015 31.2195 42.3096 40.3806Z" fill="#EB5757"/>
<path d="M36.2639 48.4308C32.5763 53.9274 41.2353 59.2977 45.1935 54.286C46.5053 52.6249 46.7429 51.0229 46.3161 49.6776C45.1533 46.0164 39.0612 44.2598 36.2639 48.4308ZM41.441 53.0393C41.3416 53.0625 41.2454 53.078 41.1516 53.0863C38.863 53.2968 38.3975 49.3848 41.0544 49.2501C43.3392 49.1349 43.4764 52.5706 41.441 53.0393Z" fill="#EB5757"/>
</svg>
